<?xml version="1.0" encoding="utf-8"?>
<!-- Generator: Adobe Illustrator 15.0.0, SVG Export Plug-In . SVG Version: 6.00 Build 0)  -->
<!DOCTYPE svg PUBLIC "-//W3C//DTD SVG 1.1//EN" "http://www.w3.org/Graphics/SVG/1.1/DTD/svg11.dtd">
<svg version="1.1" id="Layer_1" xmlns="http://www.w3.org/2000/svg" xmlns:xlink="http://www.w3.org/1999/xlink" x="0px" y="0px"
	 width="96px" height="96px" viewBox="0 0 96 96" enable-background="new 0 0 96 96" xml:space="preserve">
<text transform="matrix(1 0 0 1 73.9336 73.2617)" fill="#817C00" font-family="'TradeGothic'" font-size="8.3981">®</text>
<g>
	<g>
		<g>
			<path fill="#40528F" d="M19.501,35.866c-0.004,4.024-3.271,7.286-7.298,7.28c-4.031-0.001-7.292-3.275-7.286-7.302
				c0.006-4.025,3.272-7.285,7.304-7.285C16.25,28.566,19.509,31.834,19.501,35.866z"/>
			<path fill="#40528F" d="M31.348,47.74c-0.007,4.027-3.275,7.288-7.304,7.288c-4.027-0.006-7.286-3.278-7.282-7.305
				c0.007-4.027,3.271-7.288,7.304-7.282C28.09,40.443,31.354,43.711,31.348,47.74z"/>
			<path fill="#40528F" d="M43.191,59.618c-0.006,4.028-3.274,7.292-7.299,7.283c-4.028-0.003-7.291-3.278-7.283-7.301
				c0.004-4.028,3.274-7.292,7.299-7.286C39.939,52.32,43.198,55.593,43.191,59.618z"/>
			<path fill="#40528F" d="M55.292,71.243c-0.009,4.028-3.275,7.286-7.301,7.28c-4.03-0.009-7.292-3.275-7.286-7.298
				c0.012-4.028,3.277-7.292,7.301-7.28C52.031,63.948,55.292,67.215,55.292,71.243z"/>
			<path fill="#40528F" d="M43.33,83.176c-0.003,4.022-3.271,7.283-7.302,7.277c-4.022-0.006-7.292-3.278-7.283-7.301
				c0.009-4.028,3.278-7.292,7.305-7.289C40.077,75.869,43.336,79.142,43.33,83.176z"/>
			<path fill="#40528F" d="M67.254,59.311c-0.012,4.025-3.272,7.289-7.307,7.283c-4.025,0-7.289-3.275-7.283-7.307
				c0-4.02,3.275-7.277,7.307-7.277C63.993,52.016,67.257,55.282,67.254,59.311z"/>
		</g>
		<g>
			<path fill="#999332" d="M76.553,59.51c0.006-4.028,3.275-7.289,7.301-7.283c4.025,0.003,7.289,3.272,7.289,7.307
				c-0.009,4.022-3.275,7.283-7.313,7.28C79.808,66.808,76.547,63.535,76.553,59.51z"/>
			<path fill="#999332" d="M64.711,47.634c0-4.027,3.27-7.291,7.301-7.288c4.031,0.007,7.283,3.278,7.283,7.304
				c-0.006,4.028-3.275,7.295-7.31,7.283C67.963,54.934,64.702,51.664,64.711,47.634z"/>
			<path fill="#999332" d="M52.869,35.757c0.006-4.03,3.267-7.289,7.295-7.282c4.025,0.001,7.292,3.271,7.283,7.302
				c0,4.025-3.275,7.285-7.301,7.279C56.115,43.052,52.857,39.783,52.869,35.757z"/>
			<path fill="#999332" d="M40.761,24.134c0.012-4.031,3.281-7.291,7.304-7.288c4.031,0.01,7.289,3.28,7.283,7.305
				c-0.003,4.031-3.275,7.289-7.304,7.28C44.021,31.429,40.759,28.161,40.761,24.134z"/>
			<path fill="#999332" d="M52.726,12.201c0.003-4.025,3.272-7.288,7.298-7.279c4.028,0.003,7.295,3.275,7.283,7.299
				c-0.006,4.031-3.272,7.291-7.301,7.286C55.98,19.503,52.72,16.231,52.726,12.201z"/>
			<path fill="#999332" d="M28.805,36.061c0.004-4.024,3.272-7.286,7.302-7.28c4.028,0.001,7.289,3.277,7.285,7.304
				c-0.004,4.025-3.277,7.285-7.308,7.28C32.061,43.358,28.796,40.092,28.805,36.061z"/>
		</g>
	</g>
</g>
</svg>
